<svg width="18" height="18" viewBox="0 0 18 18" fill="none" xmlns="http://www.w3.org/2000/svg">
<path d="M0.316059 16.2705C-0.0868534 16.6482 -0.107267 17.281 0.270463 17.6839C0.648193 18.0869 1.28103 18.1073 1.68394 17.7295L0.316059 16.2705ZM17.9995 2.03224C18.0173 1.48024 17.5842 1.01833 17.0322 1.00052L8.03692 0.710347C7.48492 0.692541 7.02301 1.12559 7.0052 1.67759C6.98739 2.22958 7.42044 2.6915 7.97244 2.70931L15.9683 2.96724L15.7103 10.9631C15.6925 11.5151 16.1256 11.977 16.6776 11.9948C17.2296 12.0126 17.6915 11.5796 17.7093 11.0276L17.9995 2.03224ZM1.68394 17.7295L17.6839 2.72954L16.3161 1.27046L0.316059 16.2705L1.68394 17.7295Z" fill="#3C2777"/>
</svg>
