<svg width="28" height="28" viewBox="0 0 28 28" fill="none" xmlns="http://www.w3.org/2000/svg">
<path d="M14.6542 16.7129C14.2574 16.7129 13.9358 17.0345 13.9358 17.4313C13.9355 19.2907 12.4279 20.7978 10.5684 20.7976C8.70884 20.7972 7.20166 19.2896 7.20199 17.4302C7.20232 15.5709 8.70962 14.0639 10.5689 14.0639C10.9657 14.0639 11.2873 13.7423 11.2873 13.3455C11.2873 12.9488 10.9657 12.6272 10.5689 12.6272C7.91638 12.629 5.76653 14.7788 5.76471 17.4313C5.76471 20.0843 7.91549 22.2351 10.5686 22.2351C13.2218 22.2351 15.3726 20.0843 15.3726 17.4313C15.3726 17.0345 15.051 16.7129 14.6542 16.7129Z" fill="#3C2777"/>
<path d="M20.3029 19.0032C20.2352 18.617 19.8674 18.3588 19.4812 18.4265L17.9956 18.687C17.7239 18.7346 17.5043 18.9355 17.4327 19.202C17.2743 19.7901 17.0399 20.355 16.7355 20.8824C16.5967 21.122 16.6099 21.4205 16.7693 21.647L17.6364 22.8828C17.7577 23.055 17.7374 23.2895 17.5883 23.4382L16.6973 24.3295C16.5488 24.4785 16.3146 24.499 16.1426 24.3781L14.907 23.5109C14.6806 23.3514 14.3822 23.3382 14.1426 23.477C13.6154 23.7816 13.0506 24.016 12.4626 24.1744C12.1962 24.246 11.9954 24.4656 11.9478 24.7374L11.6841 26.2218C11.648 26.429 11.4679 26.5803 11.2576 26.58H9.99696C9.78665 26.5803 9.60669 26.429 9.57055 26.2218L9.31011 24.7363C9.2625 24.4645 9.06169 24.2449 8.79525 24.1733C8.20717 24.0149 7.64224 23.7804 7.11471 23.4759C6.87514 23.3371 6.5767 23.3503 6.35034 23.5098L5.11696 24.3765C4.94487 24.4978 4.71042 24.4775 4.56169 24.3284L3.67065 23.4371C3.52192 23.2885 3.50145 23.0545 3.62206 22.8823L4.48908 21.6464C4.64845 21.42 4.66172 21.1215 4.52293 20.8819C4.21833 20.3545 3.98393 19.7896 3.82571 19.2014C3.75408 18.9349 3.53454 18.7341 3.2628 18.6865L1.77772 18.426C1.57091 18.3899 1.41989 18.2105 1.41956 18.0005V16.7396C1.41934 16.5292 1.57052 16.3492 1.77772 16.313L3.2628 16.0525C3.53454 16.0049 3.75408 15.8041 3.82571 15.5375C3.98383 14.9488 4.21822 14.3834 4.52293 13.8555C4.66172 13.6159 4.64845 13.3174 4.48908 13.0909L3.6226 11.8589C3.50129 11.6868 3.5216 11.4523 3.67065 11.3035L4.56224 10.4117C4.71086 10.2629 4.94497 10.2426 5.11696 10.3636L6.35252 11.2309C6.57889 11.3903 6.87732 11.4036 7.1169 11.2647C7.64437 10.9602 8.2093 10.7257 8.79743 10.5673C9.06388 10.4957 9.26469 10.2761 9.3123 10.0043L9.57273 8.51885C9.64043 8.13264 9.38229 7.76466 8.99617 7.69694C8.61005 7.62922 8.24217 7.88743 8.17447 8.27364L7.98992 9.32765C7.58513 9.46139 7.1911 9.62572 6.81115 9.81915L5.93484 9.20423C5.19864 8.68607 4.19638 8.77345 3.56091 9.4112L2.66659 10.2997C2.02959 10.9357 1.9425 11.9379 2.4602 12.6743L3.07498 13.5508C2.88154 13.9309 2.71725 14.3253 2.5836 14.7304L1.52985 14.915C0.644371 15.0705 -0.00109044 15.8403 1.52227e-06 16.7396V18.0005C-0.00114504 18.9006 0.645518 19.6711 1.53203 19.8257L2.58578 20.0108C2.71944 20.4157 2.88372 20.8099 3.07716 21.1899L2.4602 22.0664C1.94267 22.8029 2.02997 23.8051 2.66713 24.4409L3.55872 25.3322C4.19441 25.9695 5.19651 26.0566 5.93266 25.5386L6.80623 24.9237C7.18618 25.1171 7.58022 25.2814 7.98501 25.4152L8.16955 26.4692C8.32505 27.3563 9.09653 28.0026 9.99696 27.9999H11.2576C12.1577 28.001 12.928 27.3539 13.0823 26.467L13.2674 25.413C13.6722 25.2792 14.0663 25.1149 14.4462 24.9215L15.323 25.5364C16.0593 26.0543 17.0614 25.967 17.697 25.3294L18.5886 24.4376C19.2257 23.8018 19.313 22.7996 18.7955 22.0631L18.1813 21.1893C18.3746 20.8093 18.5389 20.4151 18.6726 20.0102L19.7264 19.8251C20.1125 19.7574 20.3706 19.3894 20.3029 19.0032Z" fill="#3C2777"/>
<path d="M26.6703 6.42972L25.9291 6.30003C25.8365 6.03282 25.7273 5.77165 25.6021 5.51811L26.0381 4.90402C26.4873 4.26541 26.4116 3.39625 25.8588 2.84488L25.1569 2.14142C24.6052 1.5876 23.7346 1.51164 23.0953 1.96161L22.479 2.39371C22.2254 2.26849 21.9642 2.1593 21.697 2.06677L21.5694 1.32899C21.4353 0.559714 20.7668 -0.00125115 19.9858 2.09572e-06H18.9945C18.2136 -0.000978708 17.5453 0.560259 17.4114 1.32954L17.2812 2.07059C17.0139 2.16311 16.7527 2.27231 16.4991 2.39752L15.8828 1.96161C15.2441 1.51251 14.3748 1.5882 13.8234 2.14088L13.1226 2.8427C12.5687 3.39435 12.4927 4.26481 12.9427 4.90402L13.3749 5.52029C13.2497 5.77383 13.1405 6.035 13.0479 6.30221L12.3095 6.42972C11.5403 6.56387 10.9794 7.23196 10.9803 8.01262V9.00378C10.9788 9.78483 11.54 10.4536 12.3095 10.5878L13.0501 10.7175C13.1426 10.9847 13.2518 11.2458 13.3771 11.4994L12.9444 12.1157C12.4952 12.754 12.5704 13.623 13.1226 14.1748L13.8234 14.8755C14.375 15.4285 15.2445 15.5042 15.8833 15.0548L16.5013 14.6227C16.7549 14.7479 17.0161 14.8571 17.2833 14.9496L17.4136 15.6907C17.5478 16.4597 18.2159 17.0207 18.9967 17.0197H19.988C20.769 17.0197 21.4366 16.4575 21.5694 15.688L21.6991 14.9475C21.9664 14.8549 22.2276 14.7457 22.4812 14.6205L23.0953 15.0553C23.7346 15.5055 24.6053 15.4296 25.1569 14.8755L25.8583 14.1742C26.4107 13.623 26.4865 12.7543 26.0381 12.1157L25.6049 11.4972C25.73 11.2436 25.8392 10.9825 25.9318 10.7153L26.673 10.5851C27.4404 10.4501 28.0001 9.78347 28 9.00433V8.01317C28.0012 7.23212 27.4398 6.56365 26.6703 6.42972ZM26.5831 9.00596C26.5831 9.09843 26.5166 9.17749 26.4256 9.1934L25.2572 9.39828C24.986 9.4458 24.7668 9.64621 24.6953 9.91211C24.5741 10.362 24.3948 10.7941 24.1618 11.1975C24.0233 11.4366 24.0365 11.7344 24.1956 11.9604L24.8773 12.9324C24.9306 13.0081 24.9216 13.1112 24.8561 13.1766L24.1553 13.8773C24.0892 13.9408 23.9873 13.9481 23.9128 13.8947L22.9389 13.2136C22.713 13.0545 22.4151 13.0413 22.176 13.1798C21.7725 13.4128 21.3403 13.5921 20.8904 13.7133C20.625 13.7856 20.4255 14.0051 20.3787 14.2761L20.1738 15.4444C20.1579 15.5354 20.0788 15.6019 19.9863 15.6019H18.9945C18.902 15.6019 18.823 15.5354 18.807 15.4444L18.6016 14.2761C18.5541 14.005 18.3536 13.7859 18.0877 13.7144C17.6376 13.5932 17.2053 13.4139 16.8016 13.1809C16.5625 13.0424 16.2646 13.0556 16.0387 13.2147L15.0692 13.8947C14.9935 13.948 14.8904 13.939 14.825 13.8735L14.1242 13.1727C14.0587 13.1074 14.0497 13.0043 14.103 12.9286L14.7847 11.9565C14.9438 11.7306 14.957 11.4328 14.8185 11.1937C14.5854 10.7903 14.4061 10.3582 14.285 9.9083C14.2124 9.64316 13.993 9.44389 13.722 9.39719L12.5536 9.19231C12.4626 9.1764 12.3961 9.09734 12.3962 9.00487L12.3967 8.01317C12.3966 7.9207 12.4631 7.84164 12.5542 7.82573L13.722 7.6203C13.9933 7.57279 14.2124 7.37238 14.2839 7.10647C14.405 6.65661 14.5844 6.22451 14.8174 5.82107C14.9559 5.58197 14.9427 5.28414 14.7836 5.05823L14.1035 4.08668C14.0502 4.011 14.0592 3.90791 14.1248 3.84257L14.8261 3.1413C14.8915 3.07575 14.9946 3.06676 15.0703 3.12005L16.0419 3.80171C16.2679 3.96076 16.5657 3.974 16.8049 3.83549C17.2084 3.60249 17.6405 3.42317 18.0904 3.30204C18.3564 3.23055 18.5568 3.01145 18.6043 2.74026L18.8092 1.57201C18.8259 1.4826 18.9036 1.41754 18.9945 1.41672H19.9858C20.0783 1.41666 20.1573 1.48314 20.1733 1.57419L20.3782 2.74244C20.4257 3.01363 20.6261 3.23273 20.8921 3.30422C21.342 3.4253 21.7742 3.60462 22.1776 3.83767C22.4167 3.97618 22.7146 3.96299 22.9406 3.80389L23.9128 3.12223C23.9885 3.06894 24.0916 3.07793 24.1569 3.14348L24.8583 3.84475C24.922 3.91036 24.93 4.01193 24.8773 4.08668L24.1956 5.0604C24.0365 5.28632 24.0233 5.58415 24.1618 5.82325C24.3948 6.22669 24.5741 6.65879 24.6953 7.10865C24.7668 7.37456 24.986 7.57497 25.2572 7.62248L26.4256 7.82736C26.5166 7.84327 26.5831 7.92234 26.5831 8.0148V9.00596Z" fill="#3C2777"/>
<path d="M19.4902 5.21594C17.671 5.21594 16.1961 6.6908 16.1961 8.51007C16.1982 10.3285 17.6718 11.8021 19.4902 11.8042C21.3095 11.8042 22.7843 10.3293 22.7843 8.51007C22.7843 6.6908 21.3095 5.21594 19.4902 5.21594ZM19.4902 10.4252C18.4325 10.4252 17.5751 9.56779 17.5751 8.51007C17.5748 7.45183 18.432 6.59342 19.4902 6.59225V6.59491C20.5479 6.59491 21.4054 7.45236 21.4054 8.51007C21.4054 9.56779 20.5479 10.4252 19.4902 10.4252Z" fill="#3C2777"/>
</svg>
