<svg width="19" height="25" viewBox="0 0 19 25" fill="none" xmlns="http://www.w3.org/2000/svg">
<path d="M9.53485 24.087C7.28475 22.4996 5.78978 20.7955 4.88507 19.6077C3.61366 17.9382 1.76163 15.4469 1.21881 11.734C1.02178 10.3846 0.805456 8.90889 1.3145 7.19679C2.26183 4.01223 5.46247 0.875916 9.53485 1.00378C13.4842 1.12843 16.3406 4.26233 17.2703 7.237C17.8372 9.05043 17.6378 10.6427 17.5011 11.734C17.095 14.9724 15.5952 17.1493 14.3238 18.9949C13.4038 20.3307 11.8766 22.2495 9.53485 24.087Z" stroke="#3C2777" stroke-width="1.3" stroke-miterlimit="10"/>
<path d="M9.53484 13.1276C11.6574 13.1276 13.378 11.407 13.378 9.28444C13.378 7.16191 11.6574 5.44125 9.53484 5.44125C7.4123 5.44125 5.69165 7.16191 5.69165 9.28444C5.69165 11.407 7.4123 13.1276 9.53484 13.1276Z" stroke="#3C2777" stroke-width="1.3" stroke-miterlimit="10"/>
<path d="M2.80225 16.4811C4.05516 15.8787 6.45645 14.9282 9.60643 14.9266C12.5264 14.925 14.7821 15.7396 16.0262 16.2961" stroke="#3C2777" stroke-width="1.3" stroke-miterlimit="10"/>
</svg>
