<svg width="23" height="18" viewBox="0 0 23 18" fill="none" xmlns="http://www.w3.org/2000/svg">
<mask id="path-1-inside-1_114_63" fill="white">
<path d="M23 1.71086C23 0.767477 22.2667 0 21.3654 0H1.63457C0.73326 0 0 0.767477 0 1.71086C0 1.71241 0.000224609 1.71391 0.000224609 1.71541C0.000224609 1.71696 0 1.71841 0 1.71996V16.2891C0 17.2325 0.73326 18 1.63457 18H21.3654C22.2667 18 23 17.2325 23 16.2891V1.72C23 1.71846 22.9998 1.717 22.9998 1.71546C22.9998 1.71391 23 1.71241 23 1.71086ZM15.713 9.26827L22.1016 2.8168V15.2778L15.713 9.26827ZM1.63457 0.937434H21.3654C21.7129 0.937434 22.0048 1.19157 22.0818 1.53224L13.3731 10.3267H9.62694L0.918248 1.53224C0.995199 1.19162 1.28715 0.937434 1.63457 0.937434ZM7.28669 9.26794L0.898438 15.2777V2.8168L7.28669 9.26794ZM21.3654 17.0626H1.63457C1.30193 17.0626 1.02045 16.8295 0.929568 16.5107L7.93379 9.92143L9.13275 11.1322C9.21653 11.2168 9.32857 11.2641 9.44518 11.2641H13.5549C13.6715 11.2641 13.7835 11.2168 13.8673 11.1322L15.0659 9.92176L22.0704 16.5107C21.9795 16.8295 21.6981 17.0626 21.3654 17.0626Z"/>
</mask>
<path d="M23 1.71086C23 0.767477 22.2667 0 21.3654 0H1.63457C0.73326 0 0 0.767477 0 1.71086C0 1.71241 0.000224609 1.71391 0.000224609 1.71541C0.000224609 1.71696 0 1.71841 0 1.71996V16.2891C0 17.2325 0.73326 18 1.63457 18H21.3654C22.2667 18 23 17.2325 23 16.2891V1.72C23 1.71846 22.9998 1.717 22.9998 1.71546C22.9998 1.71391 23 1.71241 23 1.71086ZM15.713 9.26827L22.1016 2.8168V15.2778L15.713 9.26827ZM1.63457 0.937434H21.3654C21.7129 0.937434 22.0048 1.19157 22.0818 1.53224L13.3731 10.3267H9.62694L0.918248 1.53224C0.995199 1.19162 1.28715 0.937434 1.63457 0.937434ZM7.28669 9.26794L0.898438 15.2777V2.8168L7.28669 9.26794ZM21.3654 17.0626H1.63457C1.30193 17.0626 1.02045 16.8295 0.929568 16.5107L7.93379 9.92143L9.13275 11.1322C9.21653 11.2168 9.32857 11.2641 9.44518 11.2641H13.5549C13.6715 11.2641 13.7835 11.2168 13.8673 11.1322L15.0659 9.92176L22.0704 16.5107C21.9795 16.8295 21.6981 17.0626 21.3654 17.0626Z" fill="#3C2777"/>
<path d="M15.713 9.26827L13.5813 7.15737L11.4155 9.34448L13.6575 11.4534L15.713 9.26827ZM22.1016 2.8168H25.1016V-4.47632L19.9699 0.705899L22.1016 2.8168ZM22.1016 15.2778L20.0461 17.4629L25.1016 22.2185V15.2778H22.1016ZM22.0818 1.53224L24.2134 3.64314L25.3703 2.47491L25.008 0.871232L22.0818 1.53224ZM13.3731 10.3267V13.3267H14.6243L15.5048 12.4376L13.3731 10.3267ZM9.62694 10.3267L7.49525 12.4376L8.37568 13.3267H9.62694V10.3267ZM0.918248 1.53224L-2.00801 0.871145L-2.37031 2.47487L-1.21344 3.64314L0.918248 1.53224ZM7.28669 9.26794L9.3423 11.453L11.5841 9.34404L9.41837 7.15704L7.28669 9.26794ZM0.898438 15.2777H-2.10156V22.2189L2.95405 17.4628L0.898438 15.2777ZM0.898438 2.8168L3.03012 0.705898L-2.10156 -4.47631V2.8168H0.898438ZM0.929568 16.5107L-1.12603 14.3256L-2.4561 15.5768L-1.95552 17.333L0.929568 16.5107ZM7.93379 9.92143L10.0655 7.81054L8.00799 5.73275L5.87819 7.73636L7.93379 9.92143ZM9.13275 11.1322L7.00105 13.2431L7.00107 13.2431L9.13275 11.1322ZM13.8673 11.1322L15.9984 13.2437L15.999 13.2431L13.8673 11.1322ZM15.0659 9.92176L17.1215 7.73661L14.9917 5.73317L12.9342 7.81086L15.0659 9.92176ZM22.0704 16.5107L24.9554 17.3336L25.4564 15.5771L24.1259 14.3256L22.0704 16.5107ZM26 1.71086C26 -0.758944 24.0511 -3 21.3654 -3V3C20.4824 3 20 2.2939 20 1.71086H26ZM21.3654 -3H1.63457V3H21.3654V-3ZM1.63457 -3C-1.05109 -3 -3 -0.758945 -3 1.71086H3C3 2.2939 2.51761 3 1.63457 3V-3ZM-3 1.71086C-3 1.74724 -2.99934 1.77971 -2.99846 1.80737C-2.99757 1.83496 -2.99643 1.8587 -2.99541 1.87732C-2.99439 1.89579 -2.99339 1.91079 -2.99274 1.92013C-2.99241 1.9249 -2.99213 1.92878 -2.99195 1.93124C-2.99186 1.93249 -2.99178 1.93352 -2.99173 1.9342C-2.99169 1.93484 -2.99165 1.93536 -2.99164 1.93543C-2.9916 1.936 -2.99172 1.93441 -2.99185 1.93265C-2.99199 1.93066 -2.99224 1.9272 -2.99255 1.92287C-2.99314 1.91443 -2.99411 1.90005 -2.99511 1.88216C-2.99612 1.86411 -2.99728 1.84058 -2.99818 1.81302C-2.99908 1.78538 -2.99978 1.7525 -2.99978 1.71541H3.00022C3.00022 1.67794 2.99953 1.64469 2.99861 1.61668C2.99769 1.58874 2.99652 1.56484 2.99549 1.54641C2.99447 1.52814 2.99347 1.51339 2.99285 1.50457C2.99254 1.50005 2.99227 1.4964 2.99211 1.49423C2.99197 1.49228 2.99184 1.4905 2.99187 1.49088C2.99187 1.49089 2.99187 1.49092 2.99187 1.49096C2.99188 1.491 2.99188 1.49106 2.99189 1.49114C2.9919 1.49129 2.99191 1.49153 2.99194 1.49183C2.99198 1.49241 2.99205 1.49334 2.99213 1.4945C2.9923 1.49677 2.99257 1.50047 2.99288 1.50504C2.99351 1.51401 2.99448 1.52863 2.99548 1.54671C2.99648 1.56495 2.99761 1.58831 2.99848 1.61551C2.99935 1.64279 3 1.67487 3 1.71086H-3ZM-2.99978 1.71541C-2.99978 1.67937 -2.99912 1.64711 -2.99823 1.61946C-2.99734 1.5919 -2.9962 1.5682 -2.99516 1.54965C-2.99414 1.53128 -2.99314 1.51645 -2.99251 1.50746C-2.99219 1.50288 -2.99192 1.49919 -2.99176 1.49699C-2.99161 1.49499 -2.99148 1.49329 -2.99151 1.49369C-2.99151 1.49369 -2.99152 1.49383 -2.99154 1.49398C-2.99155 1.49415 -2.99157 1.49441 -2.99159 1.49472C-2.99164 1.49534 -2.99171 1.49634 -2.9918 1.49756C-2.99198 1.49994 -2.99226 1.50382 -2.99259 1.50859C-2.99325 1.51795 -2.99427 1.53316 -2.99532 1.55191C-2.99637 1.57084 -2.99754 1.59491 -2.99844 1.62286C-2.99934 1.65089 -3 1.68353 -3 1.71996H3C3 1.756 2.99935 1.78825 2.99846 1.81591C2.99757 1.84347 2.99642 1.86716 2.99539 1.88572C2.99437 1.90409 2.99337 1.91891 2.99274 1.92791C2.99241 1.93249 2.99215 1.93618 2.99198 1.93837C2.99184 1.94037 2.99171 1.94207 2.99174 1.94168C2.99174 1.94168 2.99175 1.94154 2.99176 1.94139C2.99177 1.94122 2.99179 1.94096 2.99182 1.94064C2.99186 1.94002 2.99194 1.93903 2.99203 1.93781C2.9922 1.93542 2.99248 1.93155 2.99282 1.92678C2.99347 1.91741 2.9945 1.90221 2.99554 1.88346C2.9966 1.86453 2.99776 1.84045 2.99866 1.81251C2.99956 1.78448 3.00022 1.75184 3.00022 1.71541H-2.99978ZM-3 1.71996V16.2891H3V1.71996H-3ZM-3 16.2891C-3 18.7588 -1.05114 21 1.63457 21V15C2.51766 15 3 15.7061 3 16.2891H-3ZM1.63457 21H21.3654V15H1.63457V21ZM21.3654 21C24.0511 21 26 18.7588 26 16.2891H20C20 15.7061 20.4823 15 21.3654 15V21ZM26 16.2891V1.72H20V16.2891H26ZM26 1.72C26 1.68354 25.9993 1.65087 25.9984 1.62281C25.9975 1.59484 25.9964 1.57074 25.9953 1.55179C25.9943 1.53303 25.9932 1.51781 25.9926 1.50843C25.9922 1.50366 25.992 1.49978 25.9918 1.49739C25.9917 1.49617 25.9916 1.49517 25.9916 1.49455C25.9916 1.49424 25.9915 1.49398 25.9915 1.49381C25.9915 1.49366 25.9915 1.49352 25.9915 1.49352C25.9915 1.49312 25.9916 1.49482 25.9917 1.49683C25.9919 1.49903 25.9922 1.50272 25.9925 1.5073C25.9931 1.5163 25.9941 1.53115 25.9952 1.54954C25.9962 1.56811 25.9973 1.59183 25.9982 1.61941C25.9991 1.64709 25.9998 1.67938 25.9998 1.71546H19.9998C19.9998 1.75192 20.0004 1.78459 20.0013 1.81265C20.0022 1.84062 20.0034 1.86472 20.0045 1.88367C20.0055 1.90243 20.0065 1.91766 20.0072 1.92703C20.0075 1.93181 20.0078 1.93568 20.008 1.93807C20.0081 1.93929 20.0082 1.94029 20.0082 1.94091C20.0082 1.94122 20.0082 1.94148 20.0083 1.94165C20.0083 1.94181 20.0083 1.94194 20.0083 1.94195C20.0083 1.94234 20.0082 1.94064 20.008 1.93864C20.0079 1.93643 20.0076 1.93274 20.0073 1.92816C20.0066 1.91916 20.0056 1.90431 20.0046 1.88592C20.0036 1.86735 20.0024 1.84363 20.0015 1.81605C20.0007 1.78837 20 1.75608 20 1.72H26ZM25.9998 1.71546C25.9998 1.75149 25.9991 1.78359 25.9982 1.81086C25.9974 1.83804 25.9963 1.86135 25.9953 1.87946C25.9943 1.8974 25.9933 1.91187 25.9927 1.92059C25.9924 1.92504 25.9921 1.92862 25.992 1.93075C25.9918 1.93269 25.9917 1.93433 25.9918 1.93395C25.9918 1.93394 25.9918 1.93381 25.9918 1.93366C25.9918 1.9335 25.9918 1.93324 25.9918 1.93293C25.9919 1.93233 25.9919 1.93136 25.992 1.93018C25.9922 1.92786 25.9925 1.92409 25.9928 1.91945C25.9934 1.91035 25.9944 1.89549 25.9954 1.87717C25.9964 1.85868 25.9976 1.83499 25.9985 1.80742C25.9993 1.77977 26 1.74728 26 1.71086H20C20 1.67483 20.0007 1.64273 20.0015 1.61547C20.0024 1.58828 20.0035 1.56497 20.0045 1.54686C20.0055 1.52892 20.0065 1.51445 20.0071 1.50573C20.0074 1.50128 20.0076 1.4977 20.0078 1.49557C20.0079 1.49364 20.0081 1.49199 20.008 1.49237C20.008 1.49238 20.008 1.49251 20.008 1.49266C20.008 1.49283 20.008 1.49308 20.0079 1.49339C20.0079 1.49399 20.0078 1.49496 20.0077 1.49614C20.0076 1.49846 20.0073 1.50223 20.007 1.50687C20.0064 1.51597 20.0054 1.53083 20.0044 1.54915C20.0033 1.56764 20.0022 1.59134 20.0013 1.6189C20.0004 1.64655 19.9998 1.67904 19.9998 1.71546H25.9998ZM17.8447 11.3792L24.2332 4.9277L19.9699 0.705899L13.5813 7.15737L17.8447 11.3792ZM19.1016 2.8168V15.2778H25.1016V2.8168H19.1016ZM24.1571 13.0926L17.7685 7.08312L13.6575 11.4534L20.0461 17.4629L24.1571 13.0926ZM1.63457 3.93743H21.3654V-2.06257H1.63457V3.93743ZM21.3654 3.93743C20.1822 3.93743 19.3582 3.09091 19.1555 2.19324L25.008 0.871232C24.6514 -0.707768 23.2435 -2.06257 21.3654 -2.06257V3.93743ZM19.9501 -0.578666L11.2414 8.21578L15.5048 12.4376L24.2134 3.64314L19.9501 -0.578666ZM13.3731 7.32668H9.62694V13.3267H13.3731V7.32668ZM11.7586 8.21578L3.04994 -0.578666L-1.21344 3.64314L7.49525 12.4376L11.7586 8.21578ZM3.8445 2.19333C3.64175 3.09079 2.81797 3.93743 1.63457 3.93743V-2.06257C-0.243677 -2.06257 -1.65135 -0.707556 -2.00801 0.871145L3.8445 2.19333ZM5.23108 7.08289L-1.15717 13.0927L2.95405 17.4628L9.3423 11.453L5.23108 7.08289ZM3.89844 15.2777V2.8168H-2.10156V15.2777H3.89844ZM-1.23325 4.92771L5.155 11.3788L9.41837 7.15704L3.03012 0.705898L-1.23325 4.92771ZM21.3654 14.0626H1.63457V20.0626H21.3654V14.0626ZM1.63457 14.0626C2.76841 14.0626 3.574 14.844 3.81465 15.6883L-1.95552 17.333C-1.53311 18.8149 -0.164556 20.0626 1.63457 20.0626V14.0626ZM2.98517 18.6957L9.98939 12.1065L5.87819 7.73636L-1.12603 14.3256L2.98517 18.6957ZM5.80208 12.0323L7.00105 13.2431L11.2645 9.02133L10.0655 7.81054L5.80208 12.0323ZM7.00107 13.2431C7.63507 13.8834 8.50924 14.2641 9.44518 14.2641V8.26411C10.1479 8.26411 10.798 8.55028 11.2644 9.0213L7.00107 13.2431ZM9.44518 14.2641H13.5549V8.26411H9.44518V14.2641ZM13.5549 14.2641C14.4913 14.2641 15.3649 13.883 15.9984 13.2437L11.7362 9.02073C12.202 8.55059 12.8517 8.26411 13.5549 8.26411V14.2641ZM15.999 13.2431L17.1976 12.0327L12.9342 7.81086L11.7356 9.02132L15.999 13.2431ZM13.0104 12.1069L20.0149 18.6958L24.1259 14.3256L17.1215 7.73661L13.0104 12.1069ZM19.1855 15.6878C19.4261 14.8441 20.2314 14.0626 21.3654 14.0626V20.0626C23.1647 20.0626 24.5329 18.8148 24.9554 17.3336L19.1855 15.6878Z" fill="#3C2777" mask="url(#path-1-inside-1_114_63)"/>
</svg>
