<svg width="211" height="23" viewBox="0 0 211 23" fill="none" xmlns="http://www.w3.org/2000/svg">
<path d="M5.157 2.91102L9.828 17.275L14.499 2.91102H19.44L12.798 22H6.831L0.216003 2.91102H5.157Z" fill="#3C2777"/>
<path d="M20.7782 2.69502C20.7782 1.99302 21.0302 1.41702 21.5342 0.967016C22.0382 0.499016 22.7042 0.265015 23.5322 0.265015C24.3602 0.265015 25.0262 0.499016 25.5302 0.967016C26.0342 1.41702 26.2862 1.99302 26.2862 2.69502C26.2862 3.37902 26.0342 3.95502 25.5302 4.42302C25.0262 4.87302 24.3602 5.09802 23.5322 5.09802C22.7042 5.09802 22.0382 4.87302 21.5342 4.42302C21.0302 3.95502 20.7782 3.37902 20.7782 2.69502ZM25.8272 6.93402V22H21.2102V6.93402H25.8272Z" fill="#3C2777"/>
<path d="M38.1409 22L33.6319 15.601V22H29.0149V2.02002H33.6319V12.982L38.1409 6.93402H43.5679L37.4929 14.467L43.7029 22H38.1409Z" fill="#3C2777"/>
<path d="M53.9209 18.031V22H51.8419C50.0779 22 48.7009 21.568 47.7109 20.704C46.7389 19.822 46.2529 18.373 46.2529 16.357V10.822H44.2279V6.93402H46.2529V3.23502H50.8699V6.93402H53.8939V10.822H50.8699V16.438C50.8699 17.032 50.9869 17.446 51.2209 17.68C51.4729 17.914 51.8869 18.031 52.4629 18.031H53.9209Z" fill="#3C2777"/>
<path d="M63.5629 6.74502C65.0569 6.74502 66.3889 7.06002 67.5589 7.69002C68.7469 8.30202 69.6739 9.19302 70.3399 10.363C71.0238 11.533 71.3659 12.901 71.3659 14.467C71.3659 16.033 71.0238 17.401 70.3399 18.571C69.6739 19.741 68.7469 20.641 67.5589 21.271C66.3889 21.883 65.0569 22.189 63.5629 22.189C62.0689 22.189 60.7279 21.883 59.5399 21.271C58.3519 20.641 57.4159 19.741 56.7319 18.571C56.0659 17.401 55.7329 16.033 55.7329 14.467C55.7329 12.901 56.0659 11.533 56.7319 10.363C57.4159 9.19302 58.3519 8.30202 59.5399 7.69002C60.7279 7.06002 62.0689 6.74502 63.5629 6.74502ZM63.5629 10.741C62.6809 10.741 61.9339 11.065 61.3219 11.713C60.7279 12.343 60.4309 13.261 60.4309 14.467C60.4309 15.673 60.7279 16.591 61.3219 17.221C61.9339 17.851 62.6809 18.166 63.5629 18.166C64.4449 18.166 65.1829 17.851 65.7769 17.221C66.3709 16.591 66.6679 15.673 66.6679 14.467C66.6679 13.261 66.3709 12.343 65.7769 11.713C65.1829 11.065 64.4449 10.741 63.5629 10.741Z" fill="#3C2777"/>
<path d="M78.377 9.76902C78.953 8.85102 79.691 8.12202 80.591 7.58202C81.509 7.04202 82.499 6.77202 83.561 6.77202V11.713H82.238C81.014 11.713 80.06 11.974 79.376 12.496C78.71 13.018 78.377 13.9 78.377 15.142V22H73.76V6.93402H78.377V9.76902Z" fill="#3C2777"/>
<path d="M85.0614 2.69502C85.0614 1.99302 85.3134 1.41702 85.8174 0.967016C86.3214 0.499016 86.9874 0.265015 87.8154 0.265015C88.6434 0.265015 89.3094 0.499016 89.8134 0.967016C90.3174 1.41702 90.5694 1.99302 90.5694 2.69502C90.5694 3.37902 90.3174 3.95502 89.8134 4.42302C89.3094 4.87302 88.6434 5.09802 87.8154 5.09802C86.9874 5.09802 86.3214 4.87302 85.8174 4.42302C85.3134 3.95502 85.0614 3.37902 85.0614 2.69502ZM90.1104 6.93402V22H85.4934V6.93402H90.1104Z" fill="#3C2777"/>
<path d="M92.8661 2.69502C92.8661 1.99302 93.1181 1.41702 93.6221 0.967016C94.1261 0.499016 94.7921 0.265015 95.6201 0.265015C96.4481 0.265015 97.1141 0.499016 97.6181 0.967016C98.1221 1.41702 98.3741 1.99302 98.3741 2.69502C98.3741 3.37902 98.1221 3.95502 97.6181 4.42302C97.1141 4.87302 96.4481 5.09802 95.6201 5.09802C94.7921 5.09802 94.1261 4.87302 93.6221 4.42302C93.1181 3.95502 92.8661 3.37902 92.8661 2.69502ZM97.9151 6.93402V22H93.2981V6.93402H97.9151Z" fill="#3C2777"/>
<path d="M106.827 6.74502C107.979 6.74502 108.969 7.00602 109.797 7.52802C110.625 8.05002 111.237 8.76102 111.633 9.66102V6.93402H116.223V22H111.633V19.273C111.237 20.173 110.625 20.884 109.797 21.406C108.969 21.928 107.979 22.189 106.827 22.189C105.585 22.189 104.469 21.883 103.479 21.271C102.507 20.641 101.733 19.741 101.157 18.571C100.599 17.401 100.32 16.033 100.32 14.467C100.32 12.883 100.599 11.515 101.157 10.363C101.733 9.19302 102.507 8.30202 103.479 7.69002C104.469 7.06002 105.585 6.74502 106.827 6.74502ZM108.312 10.795C107.322 10.795 106.521 11.119 105.909 11.767C105.315 12.415 105.018 13.315 105.018 14.467C105.018 15.619 105.315 16.519 105.909 17.167C106.521 17.815 107.322 18.139 108.312 18.139C109.284 18.139 110.076 17.806 110.688 17.14C111.318 16.474 111.633 15.583 111.633 14.467C111.633 13.333 111.318 12.442 110.688 11.794C110.076 11.128 109.284 10.795 108.312 10.795Z" fill="#3C2777"/>
<path d="M129.424 2.91102V22H124.807V2.91102H129.424Z" fill="#3C2777"/>
<path d="M147.597 6.93402V22H142.953V19.273C142.521 20.155 141.873 20.857 141.009 21.379C140.163 21.901 139.173 22.162 138.039 22.162C136.311 22.162 134.934 21.586 133.908 20.434C132.9 19.282 132.396 17.698 132.396 15.682V6.93402H136.986V15.115C136.986 16.141 137.247 16.942 137.769 17.518C138.309 18.076 139.029 18.355 139.929 18.355C140.865 18.355 141.603 18.058 142.143 17.464C142.683 16.87 142.953 16.024 142.953 14.926V6.93402H147.597Z" fill="#3C2777"/>
<path d="M156.503 6.74502C157.655 6.74502 158.645 7.00602 159.473 7.52802C160.301 8.05002 160.904 8.76102 161.282 9.66102V2.02002H165.899V22H161.282V19.273C160.904 20.173 160.301 20.884 159.473 21.406C158.645 21.928 157.655 22.189 156.503 22.189C155.261 22.189 154.145 21.883 153.155 21.271C152.183 20.641 151.409 19.741 150.833 18.571C150.275 17.401 149.996 16.033 149.996 14.467C149.996 12.883 150.275 11.515 150.833 10.363C151.409 9.19302 152.183 8.30202 153.155 7.69002C154.145 7.06002 155.261 6.74502 156.503 6.74502ZM157.988 10.795C156.998 10.795 156.197 11.119 155.585 11.767C154.991 12.415 154.694 13.315 154.694 14.467C154.694 15.619 154.991 16.519 155.585 17.167C156.197 17.815 156.998 18.139 157.988 18.139C158.96 18.139 159.752 17.806 160.364 17.14C160.994 16.474 161.309 15.583 161.309 14.467C161.309 13.333 160.994 12.442 160.364 11.794C159.752 11.128 158.96 10.795 157.988 10.795Z" fill="#3C2777"/>
<path d="M168.645 2.69502C168.645 1.99302 168.897 1.41702 169.401 0.967016C169.905 0.499016 170.571 0.265015 171.399 0.265015C172.227 0.265015 172.893 0.499016 173.397 0.967016C173.901 1.41702 174.153 1.99302 174.153 2.69502C174.153 3.37902 173.901 3.95502 173.397 4.42302C172.893 4.87302 172.227 5.09802 171.399 5.09802C170.571 5.09802 169.905 4.87302 169.401 4.42302C168.897 3.95502 168.645 3.37902 168.645 2.69502ZM173.694 6.93402V22H169.077V6.93402H173.694Z" fill="#3C2777"/>
<path d="M186.44 6.77202C188.168 6.77202 189.536 7.34802 190.544 8.50002C191.57 9.65202 192.083 11.236 192.083 13.252V22H187.466V13.792C187.466 12.784 187.196 12.001 186.656 11.443C186.134 10.867 185.432 10.579 184.55 10.579C183.614 10.579 182.867 10.876 182.309 11.47C181.769 12.064 181.499 12.91 181.499 14.008V22H176.882V6.93402H181.499V9.68802C181.931 8.78802 182.57 8.07702 183.416 7.55502C184.28 7.03302 185.288 6.77202 186.44 6.77202Z" fill="#3C2777"/>
<path d="M200.852 6.74502C202.004 6.74502 202.994 7.00602 203.822 7.52802C204.65 8.05002 205.262 8.76102 205.658 9.66102V6.93402H210.248V22H205.658V19.273C205.262 20.173 204.65 20.884 203.822 21.406C202.994 21.928 202.004 22.189 200.852 22.189C199.61 22.189 198.494 21.883 197.504 21.271C196.532 20.641 195.758 19.741 195.182 18.571C194.624 17.401 194.345 16.033 194.345 14.467C194.345 12.883 194.624 11.515 195.182 10.363C195.758 9.19302 196.532 8.30202 197.504 7.69002C198.494 7.06002 199.61 6.74502 200.852 6.74502ZM202.337 10.795C201.347 10.795 200.546 11.119 199.934 11.767C199.34 12.415 199.043 13.315 199.043 14.467C199.043 15.619 199.34 16.519 199.934 17.167C200.546 17.815 201.347 18.139 202.337 18.139C203.309 18.139 204.101 17.806 204.713 17.14C205.343 16.474 205.658 15.583 205.658 14.467C205.658 13.333 205.343 12.442 204.713 11.794C204.101 11.128 203.309 10.795 202.337 10.795Z" fill="#3C2777"/>
</svg>
